<svg width="166" height="20" viewBox="0 0 166 20" fill="none" xmlns="http://www.w3.org/2000/svg">
<path d="M34.144 16L30.432 4.8H32.592L35.904 14.928H34.832L38.272 4.8H40.192L43.536 14.928H42.496L45.888 4.8H47.872L44.16 16H41.952L38.896 6.864H39.472L36.368 16H34.144ZM53.9979 16V14.272L53.8859 13.904V10.88C53.8859 10.2933 53.7099 9.84 53.3579 9.52C53.0059 9.18933 52.4725 9.024 51.7579 9.024C51.2779 9.024 50.8032 9.09867 50.3339 9.248C49.8752 9.39733 49.4859 9.60533 49.1659 9.872L48.3819 8.416C48.8405 8.064 49.3845 7.80267 50.0139 7.632C50.6539 7.45067 51.3152 7.36 51.9979 7.36C53.2352 7.36 54.1899 7.65867 54.8619 8.256C55.5445 8.84267 55.8859 9.75467 55.8859 10.992V16H53.9979ZM51.3099 16.112C50.6699 16.112 50.1099 16.0053 49.6299 15.792C49.1499 15.568 48.7765 15.264 48.5099 14.88C48.2539 14.4853 48.1259 14.0427 48.1259 13.552C48.1259 13.072 48.2379 12.64 48.4619 12.256C48.6965 11.872 49.0752 11.568 49.5979 11.344C50.1205 11.12 50.8139 11.008 51.6779 11.008H54.1579V12.336H51.8219C51.1392 12.336 50.6805 12.448 50.4459 12.672C50.2112 12.8853 50.0939 13.152 50.0939 13.472C50.0939 13.8347 50.2379 14.1227 50.5259 14.336C50.8139 14.5493 51.2139 14.656 51.7259 14.656C52.2165 14.656 52.6539 14.544 53.0379 14.32C53.4325 14.096 53.7152 13.7653 53.8859 13.328L54.2219 14.528C54.0299 15.0293 53.6832 15.4187 53.1819 15.696C52.6912 15.9733 52.0672 16.112 51.3099 16.112ZM61.0926 16.112C60.378 16.112 59.69 16.0213 59.0286 15.84C58.378 15.648 57.8606 15.4187 57.4766 15.152L58.2446 13.632C58.6286 13.8773 59.0873 14.08 59.6206 14.24C60.154 14.4 60.6873 14.48 61.2206 14.48C61.85 14.48 62.3033 14.3947 62.5806 14.224C62.8686 14.0533 63.0126 13.824 63.0126 13.536C63.0126 13.3013 62.9166 13.1253 62.7246 13.008C62.5326 12.88 62.282 12.784 61.9726 12.72C61.6633 12.656 61.3166 12.5973 60.9326 12.544C60.5593 12.4907 60.1806 12.4213 59.7966 12.336C59.4233 12.24 59.082 12.1067 58.7726 11.936C58.4633 11.7547 58.2126 11.5147 58.0206 11.216C57.8286 10.9173 57.7326 10.5227 57.7326 10.032C57.7326 9.488 57.8873 9.01867 58.1966 8.624C58.506 8.21867 58.938 7.90933 59.4926 7.696C60.058 7.472 60.7246 7.36 61.4926 7.36C62.0686 7.36 62.65 7.424 63.2366 7.552C63.8233 7.68 64.3086 7.86133 64.6926 8.096L63.9246 9.616C63.5193 9.37067 63.1086 9.20533 62.6926 9.12C62.2873 9.024 61.882 8.976 61.4766 8.976C60.8686 8.976 60.4153 9.06667 60.1166 9.248C59.8286 9.42933 59.6846 9.65867 59.6846 9.936C59.6846 10.192 59.7806 10.384 59.9726 10.512C60.1646 10.64 60.4153 10.7413 60.7246 10.816C61.034 10.8907 61.3753 10.9547 61.7486 11.008C62.1326 11.0507 62.5113 11.12 62.8846 11.216C63.258 11.312 63.5993 11.4453 63.9086 11.616C64.2286 11.776 64.4846 12.0053 64.6766 12.304C64.8686 12.6027 64.9646 12.992 64.9646 13.472C64.9646 14.0053 64.8046 14.4693 64.4846 14.864C64.1753 15.2587 63.7326 15.568 63.1566 15.792C62.5806 16.0053 61.8926 16.112 61.0926 16.112ZM71.535 7.36C72.2177 7.36 72.8257 7.49333 73.359 7.76C73.903 8.02667 74.3297 8.43733 74.639 8.992C74.9483 9.536 75.103 10.24 75.103 11.104V16H73.103V11.36C73.103 10.6027 72.9217 10.0373 72.559 9.664C72.207 9.29067 71.711 9.104 71.071 9.104C70.6017 9.104 70.1857 9.2 69.823 9.392C69.4603 9.584 69.1777 9.872 68.975 10.256C68.783 10.6293 68.687 11.104 68.687 11.68V16H66.687V4.128H68.687V9.76L68.255 9.056C68.5537 8.512 68.9857 8.096 69.551 7.808C70.127 7.50933 70.7883 7.36 71.535 7.36ZM85.278 16.112C84.3393 16.112 83.614 15.872 83.102 15.392C82.59 14.9013 82.334 14.1813 82.334 13.232V5.568H84.334V13.184C84.334 13.5893 84.4353 13.904 84.638 14.128C84.8513 14.352 85.1447 14.464 85.518 14.464C85.966 14.464 86.3393 14.3467 86.638 14.112L87.198 15.536C86.9633 15.728 86.6753 15.872 86.334 15.968C85.9927 16.064 85.6407 16.112 85.278 16.112ZM80.926 9.12V7.52H86.622V9.12H80.926ZM93.6913 7.36C94.3739 7.36 94.9819 7.49333 95.5153 7.76C96.0593 8.02667 96.4859 8.43733 96.7953 8.992C97.1046 9.536 97.2593 10.24 97.2593 11.104V16H95.2593V11.36C95.2593 10.6027 95.0779 10.0373 94.7153 9.664C94.3633 9.29067 93.8673 9.104 93.2273 9.104C92.7579 9.104 92.3419 9.2 91.9793 9.392C91.6166 9.584 91.3339 9.872 91.1313 10.256C90.9393 10.6293 90.8433 11.104 90.8433 11.68V16H88.8433V4.128H90.8433V9.76L90.4113 9.056C90.7099 8.512 91.1419 8.096 91.7073 7.808C92.2833 7.50933 92.9446 7.36 93.6913 7.36ZM103.828 16.112C102.879 16.112 102.047 15.9253 101.332 15.552C100.628 15.168 100.079 14.6453 99.684 13.984C99.3 13.3227 99.108 12.5707 99.108 11.728C99.108 10.8747 99.2947 10.1227 99.668 9.472C100.052 8.81067 100.575 8.29333 101.236 7.92C101.908 7.54667 102.671 7.36 103.524 7.36C104.356 7.36 105.097 7.54133 105.748 7.904C106.399 8.26667 106.911 8.77867 107.284 9.44C107.657 10.1013 107.844 10.88 107.844 11.776C107.844 11.8613 107.839 11.9573 107.828 12.064C107.828 12.1707 107.823 12.272 107.812 12.368H100.692V11.04H106.756L105.972 11.456C105.983 10.9653 105.881 10.5333 105.668 10.16C105.455 9.78667 105.161 9.49333 104.788 9.28C104.425 9.06667 104.004 8.96 103.524 8.96C103.033 8.96 102.601 9.06667 102.228 9.28C101.865 9.49333 101.577 9.792 101.364 10.176C101.161 10.5493 101.06 10.992 101.06 11.504V11.824C101.06 12.336 101.177 12.7893 101.412 13.184C101.647 13.5787 101.977 13.8827 102.404 14.096C102.831 14.3093 103.321 14.416 103.876 14.416C104.356 14.416 104.788 14.3413 105.172 14.192C105.556 14.0427 105.897 13.808 106.196 13.488L107.268 14.72C106.884 15.168 106.399 15.5147 105.812 15.76C105.236 15.9947 104.575 16.112 103.828 16.112ZM117.803 16.112C116.982 16.112 116.24 15.9307 115.579 15.568C114.928 15.1947 114.416 14.6827 114.043 14.032C113.67 13.3813 113.483 12.6133 113.483 11.728C113.483 10.8427 113.67 10.0747 114.043 9.424C114.416 8.77333 114.928 8.26667 115.579 7.904C116.24 7.54133 116.982 7.36 117.803 7.36C118.518 7.36 119.158 7.52 119.723 7.84C120.288 8.14933 120.736 8.624 121.067 9.264C121.398 9.904 121.563 10.7253 121.563 11.728C121.563 12.72 121.403 13.5413 121.083 14.192C120.763 14.832 120.32 15.312 119.755 15.632C119.19 15.952 118.539 16.112 117.803 16.112ZM118.043 14.4C118.523 14.4 118.95 14.2933 119.323 14.08C119.707 13.8667 120.011 13.5573 120.235 13.152C120.47 12.7467 120.587 12.272 120.587 11.728C120.587 11.1733 120.47 10.6987 120.235 10.304C120.011 9.89867 119.707 9.58933 119.323 9.376C118.95 9.16267 118.523 9.056 118.043 9.056C117.563 9.056 117.131 9.16267 116.747 9.376C116.374 9.58933 116.07 9.89867 115.835 10.304C115.611 10.6987 115.499 11.1733 115.499 11.728C115.499 12.272 115.611 12.7467 115.835 13.152C116.07 13.5573 116.374 13.8667 116.747 14.08C117.131 14.2933 117.563 14.4 118.043 14.4ZM120.635 16V13.984L120.715 11.712L120.555 9.44V4.128H122.539V16H120.635ZM125.171 16V7.456H127.171V16H125.171ZM126.179 6.048C125.806 6.048 125.497 5.93067 125.251 5.696C125.017 5.46133 124.899 5.17867 124.899 4.848C124.899 4.50667 125.017 4.224 125.251 4C125.497 3.76533 125.806 3.648 126.179 3.648C126.553 3.648 126.857 3.76 127.091 3.984C127.337 4.19733 127.459 4.46933 127.459 4.8C127.459 5.152 127.342 5.45067 127.107 5.696C126.873 5.93067 126.563 6.048 126.179 6.048ZM132.436 16.112C131.722 16.112 131.034 16.0213 130.372 15.84C129.722 15.648 129.204 15.4187 128.82 15.152L129.588 13.632C129.972 13.8773 130.431 14.08 130.964 14.24C131.498 14.4 132.031 14.48 132.564 14.48C133.194 14.48 133.647 14.3947 133.924 14.224C134.212 14.0533 134.356 13.824 134.356 13.536C134.356 13.3013 134.26 13.1253 134.068 13.008C133.876 12.88 133.626 12.784 133.316 12.72C133.007 12.656 132.66 12.5973 132.276 12.544C131.903 12.4907 131.524 12.4213 131.14 12.336C130.767 12.24 130.426 12.1067 130.116 11.936C129.807 11.7547 129.556 11.5147 129.364 11.216C129.172 10.9173 129.076 10.5227 129.076 10.032C129.076 9.488 129.231 9.01867 129.54 8.624C129.85 8.21867 130.282 7.90933 130.836 7.696C131.402 7.472 132.068 7.36 132.836 7.36C133.412 7.36 133.994 7.424 134.58 7.552C135.167 7.68 135.652 7.86133 136.036 8.096L135.268 9.616C134.863 9.37067 134.452 9.20533 134.036 9.12C133.631 9.024 133.226 8.976 132.82 8.976C132.212 8.976 131.759 9.06667 131.46 9.248C131.172 9.42933 131.028 9.65867 131.028 9.936C131.028 10.192 131.124 10.384 131.316 10.512C131.508 10.64 131.759 10.7413 132.068 10.816C132.378 10.8907 132.719 10.9547 133.092 11.008C133.476 11.0507 133.855 11.12 134.228 11.216C134.602 11.312 134.943 11.4453 135.252 11.616C135.572 11.776 135.828 12.0053 136.02 12.304C136.212 12.6027 136.308 12.992 136.308 13.472C136.308 14.0053 136.148 14.4693 135.828 14.864C135.519 15.2587 135.076 15.568 134.5 15.792C133.924 16.0053 133.236 16.112 132.436 16.112ZM142.879 7.36C143.561 7.36 144.169 7.49333 144.703 7.76C145.247 8.02667 145.673 8.43733 145.983 8.992C146.292 9.536 146.447 10.24 146.447 11.104V16H144.447V11.36C144.447 10.6027 144.265 10.0373 143.903 9.664C143.551 9.29067 143.055 9.104 142.415 9.104C141.945 9.104 141.529 9.2 141.167 9.392C140.804 9.584 140.521 9.872 140.319 10.256C140.127 10.6293 140.031 11.104 140.031 11.68V16H138.031V4.128H140.031V9.76L139.599 9.056C139.897 8.512 140.329 8.096 140.895 7.808C141.471 7.50933 142.132 7.36 142.879 7.36ZM153.016 16.112C152.066 16.112 151.234 15.9253 150.52 15.552C149.816 15.168 149.266 14.6453 148.872 13.984C148.488 13.3227 148.296 12.5707 148.296 11.728C148.296 10.8747 148.482 10.1227 148.856 9.472C149.24 8.81067 149.762 8.29333 150.424 7.92C151.096 7.54667 151.858 7.36 152.712 7.36C153.544 7.36 154.285 7.54133 154.936 7.904C155.586 8.26667 156.098 8.77867 156.472 9.44C156.845 10.1013 157.032 10.88 157.032 11.776C157.032 11.8613 157.026 11.9573 157.016 12.064C157.016 12.1707 157.01 12.272 157 12.368H149.88V11.04H155.944L155.16 11.456C155.17 10.9653 155.069 10.5333 154.856 10.16C154.642 9.78667 154.349 9.49333 153.976 9.28C153.613 9.06667 153.192 8.96 152.712 8.96C152.221 8.96 151.789 9.06667 151.416 9.28C151.053 9.49333 150.765 9.792 150.552 10.176C150.349 10.5493 150.248 10.992 150.248 11.504V11.824C150.248 12.336 150.365 12.7893 150.6 13.184C150.834 13.5787 151.165 13.8827 151.592 14.096C152.018 14.3093 152.509 14.416 153.064 14.416C153.544 14.416 153.976 14.3413 154.36 14.192C154.744 14.0427 155.085 13.808 155.384 13.488L156.456 14.72C156.072 15.168 155.586 15.5147 155 15.76C154.424 15.9947 153.762 16.112 153.016 16.112ZM161.593 16.112C160.878 16.112 160.19 16.0213 159.529 15.84C158.878 15.648 158.361 15.4187 157.977 15.152L158.745 13.632C159.129 13.8773 159.587 14.08 160.121 14.24C160.654 14.4 161.187 14.48 161.721 14.48C162.35 14.48 162.803 14.3947 163.081 14.224C163.369 14.0533 163.513 13.824 163.513 13.536C163.513 13.3013 163.417 13.1253 163.225 13.008C163.033 12.88 162.782 12.784 162.473 12.72C162.163 12.656 161.817 12.5973 161.433 12.544C161.059 12.4907 160.681 12.4213 160.297 12.336C159.923 12.24 159.582 12.1067 159.273 11.936C158.963 11.7547 158.713 11.5147 158.521 11.216C158.329 10.9173 158.233 10.5227 158.233 10.032C158.233 9.488 158.387 9.01867 158.697 8.624C159.006 8.21867 159.438 7.90933 159.993 7.696C160.558 7.472 161.225 7.36 161.993 7.36C162.569 7.36 163.15 7.424 163.737 7.552C164.323 7.68 164.809 7.86133 165.193 8.096L164.425 9.616C164.019 9.37067 163.609 9.20533 163.193 9.12C162.787 9.024 162.382 8.976 161.977 8.976C161.369 8.976 160.915 9.06667 160.617 9.248C160.329 9.42933 160.185 9.65867 160.185 9.936C160.185 10.192 160.281 10.384 160.473 10.512C160.665 10.64 160.915 10.7413 161.225 10.816C161.534 10.8907 161.875 10.9547 162.249 11.008C162.633 11.0507 163.011 11.12 163.385 11.216C163.758 11.312 164.099 11.4453 164.409 11.616C164.729 11.776 164.985 12.0053 165.177 12.304C165.369 12.6027 165.465 12.992 165.465 13.472C165.465 14.0053 165.305 14.4693 164.985 14.864C164.675 15.2587 164.233 15.568 163.657 15.792C163.081 16.0053 162.393 16.112 161.593 16.112Z" fill="#CDC6C6"/>
<path d="M30 11.04H165.881V11.84H30V11.04Z" fill="#CDC6C6"/>
<rect width="20" height="20" rx="10" fill="black"/>
<path d="M8.07573 14.8036L4.17573 10.4453C3.94142 10.1835 3.94142 9.75898 4.17573 9.49711L5.02424 8.54888C5.25854 8.28702 5.63846 8.28702 5.87277 8.54888L8.5 11.4848L14.1272 5.19638C14.3615 4.93454 14.7415 4.93454 14.9758 5.19638L15.8243 6.14461C16.0586 6.40645 16.0586 6.83098 15.8243 7.09285L8.92426 14.8036C8.68994 15.0655 8.31004 15.0655 8.07573 14.8036Z" fill="white"/>
</svg>
